<?xml version="1.0" encoding="utf-8"?>
<!-- Generator: Adobe Illustrator 27.1.1, SVG Export Plug-In . SVG Version: 6.00 Build 0)  -->
<svg version="1.1" id="Layer_1" xmlns="http://www.w3.org/2000/svg" xmlns:xlink="http://www.w3.org/1999/xlink" x="0px" y="0px"
	 width="421.3px" height="128.5px" viewBox="0 0 421.3 128.5" style="enable-background:new 0 0 421.3 128.5;" xml:space="preserve"
	>
<style type="text/css">
	.st0{fill:#FFFFFF;}
</style>
<g id="Layer_2_00000146488620702863009310000006090032469442330801_">
	<g id="Layer_1-2">
		<path class="st0" d="M76.4,2.7L56.3,29.3h15.1c3.8,0,6.8,3,6.8,6.8c0,1.5-0.5,2.9-1.4,4.1l-44.6,59h49.5c3.7,0,6.8-3,6.8-6.8V6.8
			c0-3.7-3-6.8-6.8-6.8C79.7,0,77.6,1,76.4,2.7z"/>
		<path class="st0" d="M11.7,88.3l44.6-59H6.8c-3.7,0-6.8,3-6.8,6.7v85.6c0,3.8,3.1,6.8,6.8,6.8c2.1,0,4.1-1,5.4-2.7l20.1-26.6H17.1
			c-3.8,0-6.8-3-6.8-6.8C10.4,90.9,10.8,89.5,11.7,88.3z"/>
		<path class="st0" d="M142.7,37.7c5.8,0,10.3,1.9,13.7,5.8c3.4,3.9,5,9,5,15.5v30.8h-13.7V61.1c0-7.6-2.9-11.4-8.9-11.4
			c-2.1,0-4.2,0.5-6.1,1.6c-1.8,1.1-3.2,2.7-4,4.6c-0.9,2.2-1.4,4.6-1.3,7v26.8h-13.8V38.9h9.4l2.7,6.3c0.9-1.2,2-2.3,3.2-3.2
			c1.2-0.9,2.6-1.7,4-2.3c1.5-0.7,3-1.2,4.6-1.5C139.3,37.9,141,37.7,142.7,37.7z"/>
		<path class="st0" d="M198.3,91.2c-4.9,0.1-9.8-1.1-14.1-3.5c-4.1-2.2-7.5-5.6-9.9-9.7c-2.4-4.2-3.6-8.9-3.5-13.7
			c0-7.7,2.6-14.1,7.8-19.2c5.2-5.1,11.8-7.6,19.7-7.6c7.9,0,14.4,2.5,19.6,7.6c5.2,5,8,12,7.8,19.2c0.2,7.2-2.7,14.2-7.9,19.2
			C212.6,88.6,205.6,91.4,198.3,91.2z M198.3,78.3c3.6,0.1,7.2-1.3,9.7-3.9c2.5-2.7,3.9-6.3,3.8-10c0.1-3.7-1.2-7.3-3.8-10
			c-5.5-5.2-14.1-5.2-19.5,0c-2.5,2.7-3.9,6.3-3.8,10c0,1.9,0.3,3.8,1,5.7c0.6,1.7,1.5,3.2,2.8,4.4c1.2,1.2,2.7,2.2,4.3,2.8
			C194.5,78,196.4,78.3,198.3,78.3z"/>
		<path class="st0" d="M259.2,91.2c-4.8,0.1-9.5-1.2-13.7-3.5c-4.1-2.3-7.4-5.7-9.7-9.8c-2.4-4.2-3.6-8.9-3.5-13.8
			c-0.2-7.1,2.6-14,7.7-19c10-9.4,25.3-10.2,36.3-1.9c4.7,3.8,7.9,9.2,9,15.1h-13.7c-1.1-2.4-2.8-4.4-4.9-5.8
			c-2.2-1.4-4.8-2.2-7.4-2.1c-3.5-0.1-6.9,1.4-9.3,4c-2.5,2.7-3.8,6.2-3.7,9.9c-0.1,3.7,1.2,7.3,3.8,10c2.3,2.6,5.7,4.1,9.2,4.1
			c2.6,0,5.2-0.7,7.4-2.2c2.2-1.6,4-3.8,5-6.4h13.9c-1,6.1-4.2,11.6-9,15.6C271.6,89.3,265.5,91.4,259.2,91.2z"/>
		<path class="st0" d="M319.1,77.5h6.2v12.2h-9.7c-3.3,0.1-6.7-0.7-9.7-2.2c-2.7-1.4-4.9-3.6-6.3-6.3c-1.5-3-2.2-6.4-2.2-9.8V49.9
			h-9.2V47l20.2-21.4h2.6v13.3h14v11h-13.8v19.9c-0.1,2.1,0.6,4.2,2,5.7C314.8,77,316.9,77.7,319.1,77.5z"/>
		<path class="st0" d="M360.7,38.6h4.5v13h-5.9c-3.9,0-6.7,0.9-8.3,2.7c-1.7,1.8-2.5,4.8-2.5,9v26.4h-13.8V38.9h8.9l2.4,6.2
			C349.5,40.8,354.4,38.6,360.7,38.6z"/>
		<path class="st0" d="M421.3,64.2c0,1.3-0.1,2.7-0.3,4h-38.4c0.3,3.1,1.8,5.9,4.1,8c2.3,1.9,5.3,2.9,8.3,2.8c2.2,0,4.4-0.5,6.3-1.6
			c1.8-1,3.4-2.5,4.4-4.3h14.5c-1.7,5.3-5.1,9.9-9.6,13.2c-4.6,3.3-10,5-15.6,4.8c-7.1,0.2-13.9-2.6-18.9-7.7
			c-5-5.1-7.7-12-7.5-19.1c0-2.9,0.4-5.9,1.3-8.7c0.8-2.7,2-5.2,3.7-7.5c1.6-2.2,3.5-4.1,5.6-5.7c2.2-1.6,4.6-2.9,7.2-3.7
			c2.8-0.9,5.7-1.3,8.6-1.3c4.8-0.1,9.5,1.2,13.7,3.6c4,2.3,7.2,5.7,9.3,9.7C420.2,54.9,421.3,59.5,421.3,64.2z M395,49.2
			c-2.8-0.1-5.6,0.8-7.8,2.5c-2.2,1.8-3.6,4.3-4.2,7.1h24.6c-0.5-1.9-1.5-3.7-2.7-5.2c-1.2-1.4-2.6-2.5-4.3-3.2
			C398.8,49.5,396.9,49.1,395,49.2z"/>
	</g>
</g>
</svg>
