<svg width="147" height="40" viewBox="0 0 147 40" fill="none" xmlns="http://www.w3.org/2000/svg">
<g clip-path="url(#clip0)">
<path fill-rule="evenodd" clip-rule="evenodd" d="M20.8607 12.6328L15.5249 27.9857L10.309 12.6679H0.273438L10.2603 38.948H21.3406L30.8017 12.6328H20.8607Z" fill="white"/>
<path fill-rule="evenodd" clip-rule="evenodd" d="M49.74 26.4901V26.3896C49.8269 24.744 49.1977 23.1345 47.9969 21.9279C46.797 20.7231 45.129 20.0286 43.3732 20.0003C41.6544 20.0013 40.0088 20.6656 38.8284 21.8391C37.6472 23.0116 37.0307 24.5909 37.1253 26.2043V26.3038C37.0531 27.9397 37.6891 29.5316 38.884 30.7227C40.079 31.9137 41.7353 32.6024 43.4795 32.6307C45.1866 32.6287 46.8185 31.9732 47.9978 30.8124C49.1782 29.6526 49.8015 28.0918 49.7264 26.4891H49.74V26.4901ZM28.6943 26.4023V26.3097C28.6943 18.8698 34.9051 12.6307 43.4844 12.6307C52.0646 12.6307 58.17 18.7664 58.17 26.2063V26.2989C58.17 33.7496 51.9592 39.9994 43.38 39.9994C34.7988 40.0013 28.6943 33.8432 28.6943 26.4023Z" fill="white"/>
<path fill-rule="evenodd" clip-rule="evenodd" d="M61.3281 38.949H70.8019V12.6328H61.3281V38.949Z" fill="white"/>
<path fill-rule="evenodd" clip-rule="evenodd" d="M95.0047 26.4274C95.0984 28.0409 94.4829 29.6182 93.2996 30.7917C92.1173 31.9661 90.4727 32.6304 88.752 32.6314C87.0059 32.6041 85.3495 31.9154 84.1526 30.7224C82.9548 29.5323 82.3207 27.9394 82.3909 26.3026V26.205C82.2983 24.5916 82.9128 23.0152 84.097 21.8418C85.2793 20.6673 86.924 20.003 88.6447 20.001C90.3898 20.0323 92.0452 20.7209 93.2401 21.912C94.436 23.103 95.072 24.696 95.0047 26.3279V26.4274ZM94.876 1.05253V13.4713C94.4643 13.0664 91.2492 12.4607 89.1334 12.4607C80.3327 12.4597 73.9609 18.889 73.9609 26.5572C73.9609 34.32 80.2839 38.9476 89.0251 38.9476H104.489V3.64728L94.876 1.05253Z" fill="white"/>
<path fill-rule="evenodd" clip-rule="evenodd" d="M107.642 29.8567V12.6328H116.967V26.8903C116.967 29.763 118.494 31.3208 120.747 31.3208C123.002 31.3208 124.621 29.763 124.621 26.8903V12.6328H133.959V38.949H116.672C110.976 38.948 107.642 35.8334 107.642 29.8567Z" fill="white"/>
<path fill-rule="evenodd" clip-rule="evenodd" d="M66.065 0C68.6812 0 70.8019 2.12067 70.8019 4.73688C70.8019 7.35309 68.6812 9.47375 66.065 9.47375C63.4488 9.47375 61.3281 7.35309 61.3281 4.73688C61.3281 2.12067 63.4488 0 66.065 0Z" fill="white"/>
<path d="M141.644 21.6586C141 21.6586 140.402 21.5457 139.851 21.3199C139.307 21.0857 138.83 20.7637 138.42 20.354C138.011 19.9358 137.689 19.4508 137.455 18.8988C137.229 18.3469 137.116 17.7531 137.116 17.1175C137.116 16.4736 137.229 15.8798 137.455 15.3362C137.689 14.7843 138.011 14.3076 138.42 13.9062C138.83 13.4964 139.307 13.1786 139.851 12.9528C140.402 12.7186 141 12.6016 141.644 12.6016C142.288 12.6016 142.882 12.7186 143.426 12.9528C143.978 13.1786 144.458 13.4964 144.868 13.9062C145.278 14.3076 145.596 14.7843 145.822 15.3362C146.056 15.8798 146.173 16.4736 146.173 17.1175C146.173 17.7531 146.056 18.3469 145.822 18.8988C145.596 19.4508 145.278 19.9358 144.868 20.354C144.458 20.7637 143.978 21.0857 143.426 21.3199C142.882 21.5457 142.288 21.6586 141.644 21.6586ZM141.644 20.9561C142.188 20.9561 142.69 20.8599 143.15 20.6676C143.61 20.4752 144.011 20.2076 144.354 19.8647C144.697 19.5135 144.96 19.1037 145.144 18.6354C145.337 18.1671 145.433 17.6611 145.433 17.1175C145.433 16.5739 145.337 16.0722 145.144 15.6122C144.96 15.1439 144.697 14.7383 144.354 14.3954C144.011 14.0525 143.61 13.7849 143.15 13.5926C142.69 13.4002 142.188 13.304 141.644 13.304C141.101 13.304 140.595 13.4002 140.127 13.5926C139.667 13.7849 139.265 14.0525 138.922 14.3954C138.579 14.7383 138.312 15.1439 138.119 15.6122C137.935 16.0722 137.843 16.5739 137.843 17.1175C137.843 17.6611 137.935 18.1671 138.119 18.6354C138.312 19.1037 138.579 19.5135 138.922 19.8647C139.265 20.2076 139.667 20.4752 140.127 20.6676C140.595 20.8599 141.101 20.9561 141.644 20.9561ZM139.562 19.802V14.4456H141.983C142.627 14.4456 143.116 14.5961 143.451 14.8972C143.785 15.1982 143.953 15.5997 143.953 16.1014C143.953 16.5865 143.785 16.9837 143.451 17.2931C143.125 17.5942 142.66 17.7447 142.058 17.7447L142.422 17.6695C142.64 17.6695 142.84 17.7196 143.024 17.82C143.208 17.912 143.363 18.0709 143.488 18.2967L144.304 19.802H142.748L141.845 18.0834C141.787 17.9831 141.72 17.912 141.644 17.8702C141.577 17.82 141.49 17.7949 141.381 17.7949H140.954V19.802H139.562ZM140.942 16.7914H141.807C142.083 16.7914 142.284 16.7454 142.41 16.6534C142.543 16.553 142.61 16.3899 142.61 16.1641C142.61 15.93 142.543 15.7627 142.41 15.6624C142.284 15.562 142.083 15.5118 141.807 15.5118H140.942V16.7914Z" fill="white"/>
</g>
<defs>
<clipPath id="clip0">
<rect width="146" height="40" fill="white" transform="translate(0.273438)"/>
</clipPath>
</defs>
</svg>
