<?xml version="1.0" standalone="no"?>
<!DOCTYPE svg PUBLIC "-//W3C//DTD SVG 20010904//EN"
 "http://www.w3.org/TR/2001/REC-SVG-20010904/DTD/svg10.dtd">
<svg version="1.0" xmlns="http://www.w3.org/2000/svg"
 width="260.000000pt" height="260.000000pt" viewBox="0 0 260.000000 260.000000"
 preserveAspectRatio="xMidYMid meet">
<metadata>
Created by potrace 1.14, written by Peter Selinger 2001-2017
</metadata>
<g transform="translate(0.000000,260.000000) scale(0.100000,-0.100000)"
fill="#000000" stroke="none">
<path d="M145 2510 c39 -4 62 -7 53 -8 -23 -3 -85 -58 -95 -85 -6 -17 -9 -10
-14 33 -3 30 -6 -487 -6 -1150 0 -663 3 -1180 6 -1150 5 43 8 50 14 33 10 -27
72 -82 95 -85 9 -1 -14 -4 -53 -8 -38 -4 481 -6 1155 -6 674 0 1197 1 1162 3
l-63 4 33 22 c18 12 43 37 55 55 l22 33 4 -53 c2 -29 3 489 4 1152 0 663 -3
1180 -7 1150 -4 -30 -7 -48 -8 -39 -2 20 -57 76 -85 86 -16 6 -5 9 43 14 36 3
-486 6 -1160 6 -674 -1 -1193 -3 -1155 -7z m1747 -353 c109 -144 118 -160 124
-210 l7 -56 -103 31 c-87 25 -135 48 -301 146 -109 64 -199 120 -199 123 0 3
15 10 33 16 17 6 93 34 167 62 74 27 139 49 145 47 5 -1 63 -73 127 -159z
m-359 -64 c57 -33 76 -49 73 -62 -25 -83 -399 -1421 -403 -1443 -3 -15 -7 -28
-9 -28 -5 0 -587 291 -592 295 -2 2 173 300 390 664 l393 660 35 -21 c19 -11
70 -41 113 -65z"/>
</g>
</svg>
