<svg width="51" height="46" viewBox="0 0 51 46" fill="none" xmlns="http://www.w3.org/2000/svg">
<path fill-rule="evenodd" clip-rule="evenodd" d="M47.8666 22.9997C47.8666 10.3431 37.5994 0.0830078 24.9341 0.0830078C12.2687 0.0830078 2.00146 10.3431 2.00146 22.9997C2.00146 35.6562 12.2687 45.9163 24.9341 45.9163C37.5994 45.9163 47.8666 35.6562 47.8666 22.9997ZM7.51193 16.029C9.41604 11.2808 13.2075 7.49185 17.9589 5.58891C16.8441 7.73988 15.9695 10.4215 15.38 13.4523C12.3475 14.0413 9.66427 14.9151 7.51193 16.029ZM31.9085 5.58759C33.0237 7.73877 33.8985 10.4209 34.4881 13.4523C37.5222 14.0416 40.2066 14.916 42.3595 16.0307C40.4551 11.2806 36.6621 7.49033 31.9085 5.58759ZM6.17233 23C6.17233 21.1267 9.56718 19.0941 14.7488 17.8716C14.5915 19.5227 14.5101 21.2395 14.5101 22.9997C14.5101 24.7601 14.5916 26.4772 14.7488 28.1285C9.56721 26.9059 6.17233 24.8733 6.17233 23ZM35.358 22.9997C35.358 24.7603 35.2765 26.4776 35.1192 28.1291C40.3023 26.9066 43.6984 24.8736 43.6984 23C43.6984 21.1264 40.3024 19.0934 35.1193 17.8709C35.2766 19.5222 35.358 21.2393 35.358 22.9997ZM7.5116 29.9702C9.66399 31.0842 12.3473 31.958 15.38 32.547C15.9696 35.5782 16.8443 38.2602 17.9593 40.4113C13.2074 38.5083 9.41566 34.7189 7.5116 29.9702ZM34.4881 32.547C33.8984 35.5788 33.0235 38.2613 31.9081 40.4126C36.6621 38.5098 40.4555 34.7191 42.3598 29.9685C40.2069 31.0833 37.5223 31.9577 34.4881 32.547ZM18.681 23C18.681 20.9368 18.8105 18.9574 19.041 17.1091C20.89 16.879 22.8701 16.7497 24.9341 16.7497C26.999 16.7497 28.98 16.8791 30.8298 17.1095C31.0602 18.9576 31.1897 20.9369 31.1897 23C31.1897 25.063 31.0602 27.0422 30.8298 28.8903C28.9801 29.1207 26.999 29.2501 24.9341 29.2501C22.8701 29.2501 20.8899 29.1208 19.0409 28.8907C18.8105 27.0425 18.681 25.0631 18.681 23ZM19.8031 33.1784C21.0264 38.357 23.0607 41.75 24.9354 41.75C26.8101 41.75 28.8443 38.3569 30.0677 33.1782C28.4148 33.3354 26.6962 33.4168 24.9341 33.4168C23.1729 33.4168 21.4551 33.3355 19.8031 33.1784ZM24.9354 4.25C23.0607 4.25 21.0265 7.64289 19.8031 12.8214C21.4552 12.6643 23.1729 12.583 24.9341 12.583C26.6961 12.583 28.4148 12.6644 30.0676 12.8216C28.8443 7.643 26.8101 4.25 24.9354 4.25Z" fill="white"/>
</svg>
