<svg width="50" height="46" viewBox="0 0 50 46" fill="none" xmlns="http://www.w3.org/2000/svg">
<path fill-rule="evenodd" clip-rule="evenodd" d="M32.1719 12.6351C32.1719 13.2341 32.2351 13.8183 32.3552 14.3815L21.7909 19.6636C20.2631 17.91 18.0136 16.8018 15.5052 16.8018C10.9028 16.8018 7.17188 20.5327 7.17188 25.1351C7.17188 29.7375 10.9028 33.4684 15.5052 33.4684C18.0129 33.4684 20.2619 32.3607 21.7897 30.6079L32.3548 35.8905C32.2349 36.4531 32.1719 37.0367 32.1719 37.6351C32.1719 42.2375 35.9028 45.9684 40.5052 45.9684C45.1076 45.9684 48.8385 42.2375 48.8385 37.6351C48.8385 33.0327 45.1076 29.3018 40.5052 29.3018C37.9966 29.3018 35.7468 30.4103 34.2191 32.1642L23.6551 26.8822C23.7753 26.3188 23.8385 25.7343 23.8385 25.1351C23.8385 24.5365 23.7754 23.9526 23.6555 23.3898L34.2203 18.1074C35.748 19.8605 37.9972 20.9684 40.5052 20.9684C45.1076 20.9684 48.8385 17.2375 48.8385 12.6351C48.8385 8.03272 45.1076 4.30176 40.5052 4.30176C35.9028 4.30176 32.1719 8.03272 32.1719 12.6351ZM19.6693 25.1354C19.6693 27.4366 17.8038 29.3021 15.5026 29.3021C13.2014 29.3021 11.3359 27.4366 11.3359 25.1354C11.3359 22.8342 13.2014 20.9688 15.5026 20.9688C17.8038 20.9688 19.6693 22.8342 19.6693 25.1354ZM40.5104 16.8021C42.8116 16.8021 44.6771 14.9366 44.6771 12.6354C44.6771 10.3342 42.8116 8.46875 40.5104 8.46875C38.2092 8.46875 36.3438 10.3342 36.3438 12.6354C36.3438 14.9366 38.2092 16.8021 40.5104 16.8021ZM44.6771 37.6354C44.6771 39.9366 42.8116 41.8021 40.5104 41.8021C38.2092 41.8021 36.3438 39.9366 36.3438 37.6354C36.3438 35.3342 38.2092 33.4688 40.5104 33.4688C42.8116 33.4688 44.6771 35.3342 44.6771 37.6354Z" fill="white"/>
</svg>
