<svg width="35" height="56" viewBox="0 0 35 56" fill="none" xmlns="http://www.w3.org/2000/svg">
<path fill-rule="evenodd" clip-rule="evenodd" d="M5.62333 0.26787L5.63567 17.5982L0.767881 17.6016L0.785512 42.3592C0.790381 49.1958 6.24279 54.7341 12.9638 54.7293L22.6994 54.7223C29.4204 54.7176 34.8649 49.1715 34.8601 42.3349L34.8424 17.5774L29.9746 17.5808L29.9623 0.250537L5.62333 0.26787ZM5.65313 42.3569L5.63902 22.5509L29.978 22.5335L29.9921 42.3396C29.995 46.4415 26.7283 49.7692 22.6957 49.772L12.9601 49.779C8.92749 49.7818 5.65605 46.4589 5.65313 42.3569ZM25.0996 5.2041L10.4962 5.2145L10.5051 17.5933L25.1084 17.5829L25.0996 5.2041ZM20.2371 15.1116L20.2318 7.68437L15.3641 7.68783L15.3693 15.1151L20.2371 15.1116Z" fill="#FBFBFB"/>
</svg>
