<svg width="51" height="50" viewBox="0 0 51 50" fill="none" xmlns="http://www.w3.org/2000/svg">
<path fill-rule="evenodd" clip-rule="evenodd" d="M43.7803 8.33335V29.1667C43.7803 31.4679 41.9135 33.3334 39.6107 33.3334H27.102V36.3205L36.5138 41.9636L34.3685 45.5365L27.102 41.1796V45.8334H22.9325V41.1796L15.666 45.5365L13.5207 41.9636L22.9325 36.3205V33.3334H10.4238C8.12099 33.3334 6.25421 31.4679 6.25421 29.1667V8.33335H4.16943V4.16669H45.8651V8.33335H43.7803ZM10.4238 8.33335V29.1667H39.6107V8.33335H10.4238ZM16.6781 25H20.8477V16.6667H16.6781V25ZM27.102 25H22.9325V12.5H27.102V25ZM29.1868 25H33.3564V18.75H29.1868V25Z" fill="white"/>
</svg>
