<svg
  width="181"
  height="39"
  viewBox="0 0 181 39"
  fill="none"
  xmlns="http://www.w3.org/2000/svg"
>
  <g filter="url(#filter0_d)">
    <g filter="url(#filter1_f)">
      <path
        d="M11.471 28.4307L5.85938 22.4386L12.85 25.8517C13.4164 26.1282 14.0942 25.8183 14.2555 25.209L18.5533 8.9729L19.508 5.31836L20.8094 6.06197L21.553 6.45971L21.1725 29.7623L11.471 28.4307Z"
        fill="url(#paint0_radial)"
        fill-opacity="0.7"
      />
    </g>
    <g filter="url(#filter2_d)">
      <path
        d="M25.06 7.31221L22.2187 6.51549L16.3153 3.13039L21.2925 1.29206L24.8166 5.76728L25.06 7.31221Z"
        fill="white"
      />
    </g>
    <g filter="url(#filter3_d)">
      <path
        d="M15.9346 3.32129L19.1684 5.12843L13.747 25.9581L5.23438 21.7732L15.9346 3.32129Z"
        fill="white"
      />
    </g>
    <path
      d="M5 21.8186L15.8748 3.06212M5 21.8186L11.1441 28.3467C11.3001 28.5125 11.5081 28.6201 11.7336 28.6517L20.2426 29.8429C20.8375 29.9262 21.371 29.47 21.3811 28.8694L21.7611 6.35448M5 21.8186L12.7771 25.6635C13.3457 25.9446 14.0289 25.6321 14.1882 25.0181L19.3667 5.05749M15.8748 3.06212L20.981 1.65352C21.3889 1.54099 21.8235 1.69739 22.0661 2.04405L24.7244 5.84156C25.3348 6.71353 24.3414 7.8088 23.4141 7.28617L21.7611 6.35448M15.8748 3.06212L19.3667 5.05749M21.7611 6.35448L19.3667 5.05749"
      stroke="url(#paint1_radial)"
    />
  </g>
  <path
    d="M34.975 19.7016C34.975 16.8349 35.5583 14.5766 36.725 12.9266C37.8917 11.2766 39.725 10.4516 42.225 10.4516C44.725 10.4516 46.5583 11.2766 47.725 12.9266C48.9083 14.5766 49.5 16.8349 49.5 19.7016C49.5 22.6016 48.9167 24.8766 47.75 26.5266C46.5833 28.1766 44.7417 29.0016 42.225 29.0016C39.7083 29.0016 37.8667 28.1766 36.7 26.5266C35.55 24.8766 34.975 22.6016 34.975 19.7016ZM44.65 19.7016C44.65 18.2016 44.4917 17.0599 44.175 16.2766C43.8583 15.4766 43.2083 15.0766 42.225 15.0766C41.2417 15.0766 40.5917 15.4766 40.275 16.2766C39.9583 17.0599 39.8 18.2016 39.8 19.7016C39.8 21.2349 39.95 22.4016 40.25 23.2016C40.5667 23.9849 41.225 24.3766 42.225 24.3766C43.225 24.3766 43.875 23.9849 44.175 23.2016C44.4917 22.4016 44.65 21.2349 44.65 19.7016ZM51.2557 25.1766C52.8723 23.9099 54.1973 22.8182 55.2307 21.9016C56.264 20.9849 57.1307 20.0432 57.8307 19.0766C58.5307 18.0932 58.8807 17.1599 58.8807 16.2766C58.8807 15.7432 58.7557 15.3266 58.5057 15.0266C58.2723 14.7266 57.9223 14.5766 57.4557 14.5766C56.9723 14.5766 56.5973 14.7849 56.3307 15.2016C56.064 15.6016 55.939 16.1932 55.9557 16.9766H51.2057C51.2557 15.4932 51.5807 14.2682 52.1807 13.3016C52.7807 12.3182 53.564 11.6016 54.5307 11.1516C55.4973 10.6849 56.5723 10.4516 57.7557 10.4516C59.8057 10.4516 61.3307 10.9599 62.3307 11.9766C63.3307 12.9932 63.8307 14.3099 63.8307 15.9266C63.8307 17.6599 63.2473 19.2849 62.0807 20.8016C60.9307 22.3182 59.489 23.6766 57.7557 24.8766H64.0057V28.8516H51.2557V25.1766ZM65.6391 19.7016C65.6391 16.8349 66.2224 14.5766 67.3891 12.9266C68.5557 11.2766 70.3891 10.4516 72.8891 10.4516C75.3891 10.4516 77.2224 11.2766 78.3891 12.9266C79.5724 14.5766 80.1641 16.8349 80.1641 19.7016C80.1641 22.6016 79.5807 24.8766 78.4141 26.5266C77.2474 28.1766 75.4057 29.0016 72.8891 29.0016C70.3724 29.0016 68.5307 28.1766 67.3641 26.5266C66.2141 24.8766 65.6391 22.6016 65.6391 19.7016ZM75.3141 19.7016C75.3141 18.2016 75.1557 17.0599 74.8391 16.2766C74.5224 15.4766 73.8724 15.0766 72.8891 15.0766C71.9057 15.0766 71.2557 15.4766 70.9391 16.2766C70.6224 17.0599 70.4641 18.2016 70.4641 19.7016C70.4641 21.2349 70.6141 22.4016 70.9141 23.2016C71.2307 23.9849 71.8891 24.3766 72.8891 24.3766C73.8891 24.3766 74.5391 23.9849 74.8391 23.2016C75.1557 22.4016 75.3141 21.2349 75.3141 19.7016ZM93.7447 17.2766C93.4614 16.8099 93.0697 16.4516 92.5697 16.2016C92.0864 15.9516 91.5114 15.8266 90.8447 15.8266C89.6114 15.8266 88.6364 16.2266 87.9197 17.0266C87.2197 17.8266 86.8697 18.9016 86.8697 20.2516C86.8697 21.7682 87.2447 22.9266 87.9947 23.7266C88.7614 24.5099 89.8697 24.9016 91.3197 24.9016C93.0364 24.9016 94.2614 24.1266 94.9947 22.5766H90.0697V19.0516H99.2197V23.8016C98.8364 24.7349 98.2697 25.6099 97.5197 26.4266C96.7864 27.2432 95.8531 27.9182 94.7197 28.4516C93.5864 28.9682 92.2947 29.2266 90.8447 29.2266C89.0781 29.2266 87.5114 28.8516 86.1447 28.1016C84.7947 27.3349 83.7447 26.2766 82.9947 24.9266C82.2614 23.5599 81.8947 22.0016 81.8947 20.2516C81.8947 18.5182 82.2614 16.9766 82.9947 15.6266C83.7447 14.2599 84.7947 13.2016 86.1447 12.4516C87.4947 11.6849 89.0531 11.3016 90.8197 11.3016C93.0364 11.3016 94.8697 11.8349 96.3197 12.9016C97.7697 13.9682 98.6697 15.4266 99.0197 17.2766H93.7447ZM112.566 26.2266H106.316L105.366 29.1016H100.216L106.641 11.4766H112.291L118.691 29.1016H113.516L112.566 26.2266ZM111.341 22.4766L109.441 16.7766L107.566 22.4766H111.341ZM140.863 11.4766V29.1016H135.963V19.3766L132.638 29.1016H128.538L125.188 19.3016V29.1016H120.288V11.4766H126.213L130.638 22.9266L134.963 11.4766H140.863ZM148.552 15.4016V18.2766H154.177V22.0016H148.552V25.1766H154.927V29.1016H143.652V11.4766H154.927V15.4016H148.552ZM163.998 29.2766C161.948 29.2766 160.265 28.7932 158.948 27.8266C157.632 26.8432 156.923 25.4432 156.823 23.6266H162.048C162.098 24.2432 162.282 24.6932 162.598 24.9766C162.915 25.2599 163.323 25.4016 163.823 25.4016C164.273 25.4016 164.64 25.2932 164.923 25.0766C165.223 24.8432 165.373 24.5266 165.373 24.1266C165.373 23.6099 165.132 23.2099 164.648 22.9266C164.165 22.6432 163.382 22.3266 162.298 21.9766C161.148 21.5932 160.215 21.2266 159.498 20.8766C158.798 20.5099 158.182 19.9849 157.648 19.3016C157.132 18.6016 156.873 17.6932 156.873 16.5766C156.873 15.4432 157.157 14.4766 157.723 13.6766C158.29 12.8599 159.073 12.2432 160.073 11.8266C161.073 11.4099 162.207 11.2016 163.473 11.2016C165.523 11.2016 167.157 11.6849 168.373 12.6516C169.607 13.6016 170.265 14.9432 170.348 16.6766H165.023C165.007 16.1432 164.84 15.7432 164.523 15.4766C164.223 15.2099 163.832 15.0766 163.348 15.0766C162.982 15.0766 162.682 15.1849 162.448 15.4016C162.215 15.6182 162.098 15.9266 162.098 16.3266C162.098 16.6599 162.223 16.9516 162.473 17.2016C162.74 17.4349 163.065 17.6432 163.448 17.8266C163.832 17.9932 164.398 18.2099 165.148 18.4766C166.265 18.8599 167.182 19.2432 167.898 19.6266C168.632 19.9932 169.257 20.5182 169.773 21.2016C170.307 21.8682 170.573 22.7182 170.573 23.7516C170.573 24.8016 170.307 25.7432 169.773 26.5766C169.257 27.4099 168.498 28.0682 167.498 28.5516C166.515 29.0349 165.348 29.2766 163.998 29.2766Z"
    fill="white"
    fill-opacity="0.7"
  />
  <defs>
    <filter
      id="filter0_d"
      x="0.382812"
      y="1.11719"
      width="29.0352"
      height="37.2354"
      filterUnits="userSpaceOnUse"
      color-interpolation-filters="sRGB"
    >
      <feFlood flood-opacity="0" result="BackgroundImageFix" />
      <feColorMatrix
        in="SourceAlpha"
        type="matrix"
        values="0 0 0 0 0 0 0 0 0 0 0 0 0 0 0 0 0 0 127 0"
      />
      <feOffset dy="4" />
      <feGaussianBlur stdDeviation="2" />
      <feColorMatrix
        type="matrix"
        values="0 0 0 0 0 0 0 0 0 0 0 0 0 0 0 0 0 0 0.25 0"
      />
      <feBlend
        mode="normal"
        in2="BackgroundImageFix"
        result="effect1_dropShadow"
      />
      <feBlend
        mode="normal"
        in="SourceGraphic"
        in2="effect1_dropShadow"
        result="shape"
      />
    </filter>
    <filter
      id="filter1_f"
      x="1.85938"
      y="1.31836"
      width="23.6936"
      height="32.444"
      filterUnits="userSpaceOnUse"
      color-interpolation-filters="sRGB"
    >
      <feFlood flood-opacity="0" result="BackgroundImageFix" />
      <feBlend
        mode="normal"
        in="SourceGraphic"
        in2="BackgroundImageFix"
        result="shape"
      />
      <feGaussianBlur stdDeviation="2" result="effect1_foregroundBlur" />
    </filter>
    <filter
      id="filter2_d"
      x="12.3125"
      y="1.29199"
      width="16.7447"
      height="14.0201"
      filterUnits="userSpaceOnUse"
      color-interpolation-filters="sRGB"
    >
      <feFlood flood-opacity="0" result="BackgroundImageFix" />
      <feColorMatrix
        in="SourceAlpha"
        type="matrix"
        values="0 0 0 0 0 0 0 0 0 0 0 0 0 0 0 0 0 0 127 0"
      />
      <feOffset dy="4" />
      <feGaussianBlur stdDeviation="2" />
      <feColorMatrix
        type="matrix"
        values="0 0 0 0 0 0 0 0 0 0 0 0 0 0 0 0 0 0 0.25 0"
      />
      <feBlend
        mode="normal"
        in2="BackgroundImageFix"
        result="effect1_dropShadow"
      />
      <feBlend
        mode="normal"
        in="SourceGraphic"
        in2="effect1_dropShadow"
        result="shape"
      />
    </filter>
    <filter
      id="filter3_d"
      x="1.23438"
      y="3.32129"
      width="21.934"
      height="30.6368"
      filterUnits="userSpaceOnUse"
      color-interpolation-filters="sRGB"
    >
      <feFlood flood-opacity="0" result="BackgroundImageFix" />
      <feColorMatrix
        in="SourceAlpha"
        type="matrix"
        values="0 0 0 0 0 0 0 0 0 0 0 0 0 0 0 0 0 0 127 0"
      />
      <feOffset dy="4" />
      <feGaussianBlur stdDeviation="2" />
      <feColorMatrix
        type="matrix"
        values="0 0 0 0 0 0 0 0 0 0 0 0 0 0 0 0 0 0 0.25 0"
      />
      <feBlend
        mode="normal"
        in2="BackgroundImageFix"
        result="effect1_dropShadow"
      />
      <feBlend
        mode="normal"
        in="SourceGraphic"
        in2="effect1_dropShadow"
        result="shape"
      />
    </filter>
    <radialGradient
      id="paint0_radial"
      cx="0"
      cy="0"
      r="1"
      gradientUnits="userSpaceOnUse"
      gradientTransform="translate(13.1355 24.436) rotate(-28.355) scale(23.8316 15.3005)"
    >
      <stop stop-color="#B257F2" />
      <stop offset="1" stop-color="#38D1D6" />
    </radialGradient>
    <radialGradient
      id="paint1_radial"
      cx="0"
      cy="0"
      r="1"
      gradientUnits="userSpaceOnUse"
      gradientTransform="translate(1.81372 31.0459) rotate(-37.5719) scale(49.6811 38.7374)"
    >
      <stop stop-color="#B257F2" />
      <stop offset="1" stop-color="#38D1D6" />
    </radialGradient>
  </defs>
</svg>