<svg width="40" height="26" viewBox="0 0 40 26" fill="none" xmlns="http://www.w3.org/2000/svg">
<path d="M30.5152 2.21908C27.2797 1.89582 24.0553 3.85633 19.8381 3.83683C15.7458 3.8179 12.72 1.24816 9.48455 2.21908C6.24906 3.19 4.63267 6.74857 3.33712 11.602C2.04156 16.4554 0.748677 23.8967 4.30777 24.2204C7.86685 24.5442 9.4846 20.9851 12.3965 19.3672C15.3084 17.7492 17.2057 17.0288 20.4852 17.1023C23.5222 17.1705 25.0149 17.4257 27.9268 19.3672C30.8388 21.3087 33.4272 25.1909 36.0156 24.2204C38.604 23.25 38.3616 16.3491 36.9862 11.602C35.7476 7.32665 33.7507 2.54234 30.5152 2.21908Z" stroke="white" stroke-width="3"/>
<circle cx="28.2473" cy="13.2209" r="1.2942" fill="white"/>
<circle cx="28.2473" cy="8.04322" r="1.2942" fill="white"/>
<circle cx="31.4846" cy="10.6306" r="1.2942" fill="white"/>
<circle cx="25.0129" cy="10.6306" r="1.2942" fill="white"/>
<path d="M14.0088 9.01387C14.0088 9.01387 13.6856 6.74902 12.7146 6.74902C11.7436 6.74902 11.0969 9.01387 11.0969 9.01387C11.0969 9.01387 8.83203 9.34578 8.83203 10.3081C8.83203 11.2787 11.0969 11.6023 11.0969 11.6023C11.0969 11.6023 11.6959 13.8671 12.7146 13.8671C13.7333 13.8671 14.0088 11.6023 14.0088 11.6023C14.0088 11.6023 16.2737 11.2787 16.2737 10.3081C16.2737 9.34578 14.0088 9.01387 14.0088 9.01387Z" stroke="white" stroke-width="2"/>
</svg>
