<svg width="40" height="40" viewBox="0 0 40 40" fill="none" xmlns="http://www.w3.org/2000/svg">
<circle cx="20" cy="20" r="18" stroke="white" stroke-width="4"/>
<path d="M32.0984 19.6004C32.0984 26.0202 26.7236 31.3004 19.9984 31.3004C13.2733 31.3004 7.89844 26.0202 7.89844 19.6004C7.89844 13.1806 13.2733 7.90039 19.9984 7.90039C26.7236 7.90039 32.0984 13.1806 32.0984 19.6004Z" stroke="white" stroke-width="3"/>
<path d="M20.7845 23.804C21.4685 23.804 22.0685 23.654 22.5845 23.354C23.1005 23.054 23.5085 22.616 23.8085 22.04H26.6885C26.2685 23.324 25.5305 24.326 24.4745 25.046C23.4305 25.754 22.2065 26.108 20.8025 26.108C19.3625 26.108 18.0965 25.724 17.0045 24.956C15.9245 24.176 15.1745 23.138 14.7545 21.842H13.2245V20.348H14.4665C14.4425 20.06 14.4305 19.844 14.4305 19.7C14.4305 19.532 14.4425 19.304 14.4665 19.016H13.2245V17.522H14.7725C15.1925 16.226 15.9425 15.194 17.0225 14.426C18.1145 13.658 19.3745 13.274 20.8025 13.274C22.2065 13.274 23.4305 13.634 24.4745 14.354C25.5305 15.074 26.2685 16.07 26.6885 17.342H23.8085C23.5085 16.766 23.1005 16.334 22.5845 16.046C22.0685 15.746 21.4685 15.596 20.7845 15.596C20.0525 15.596 19.3985 15.764 18.8225 16.1C18.2585 16.436 17.8205 16.91 17.5085 17.522H20.9645V19.016H17.0585C17.0345 19.304 17.0225 19.532 17.0225 19.7C17.0225 19.844 17.0345 20.06 17.0585 20.348H20.9645V21.842H17.4905C17.8025 22.454 18.2465 22.934 18.8225 23.282C19.3985 23.63 20.0525 23.804 20.7845 23.804Z" fill="white"/>
</svg>
