<svg width="27" height="38" viewBox="0 0 27 38" fill="none" xmlns="http://www.w3.org/2000/svg">
<path fill-rule="evenodd" clip-rule="evenodd" d="M4.12646 0.151001H22.8765C24.9475 0.151001 26.6265 1.83882 26.6265 3.92084V34.0796C26.6265 36.1616 24.9475 37.8494 22.8765 37.8494H4.12646C2.0554 37.8494 0.376465 36.1616 0.376465 34.0796V3.92084C0.376465 1.83882 2.0554 0.151001 4.12646 0.151001ZM4.12827 3.92108V34.0798H22.8783V3.92108H4.12827ZM15.3765 30.3098C15.3765 31.3508 14.537 32.1947 13.5015 32.1947C12.466 32.1947 11.6265 31.3508 11.6265 30.3098C11.6265 29.2688 12.466 28.4249 13.5015 28.4249C14.537 28.4249 15.3765 29.2688 15.3765 30.3098Z" fill="white"/>
</svg>
