<svg width="45" height="42" viewBox="0 0 45 42" fill="none" xmlns="http://www.w3.org/2000/svg">
<path fill-rule="evenodd" clip-rule="evenodd" d="M43.8683 17.9845C43.8683 22.9402 39.6423 26.9103 34.4845 26.9103H25.9211V29.2323C27.6208 29.8298 28.968 31.1699 29.5688 32.8607H39.8794V36.8277H29.5688C28.7476 39.1388 26.5317 40.7947 23.927 40.7947C21.3224 40.7947 19.1065 39.1388 18.2853 36.8277H7.97465V32.8607H18.2853C18.8861 31.1699 20.2332 29.8298 21.933 29.2323V26.9103H14.4267C8.68587 26.9103 3.9873 22.4962 3.9873 16.9928C3.9873 12.3437 7.36108 8.4119 11.9584 7.35423C14.3139 3.54619 18.8839 1.12476 23.9278 1.12476C29.8714 1.12476 35.081 4.48451 36.8754 9.35117C40.9115 10.3588 43.8683 13.85 43.8683 17.9845ZM25.9198 34.8437C25.9198 35.9391 25.027 36.8272 23.9257 36.8272C22.8245 36.8272 21.9317 35.9391 21.9317 34.8437C21.9317 33.7482 22.8245 32.8601 23.9257 32.8601C25.027 32.8601 25.9198 33.7482 25.9198 34.8437ZM35.1071 13.0583C37.8338 13.3459 39.8794 15.4816 39.8794 17.9844C39.8794 20.6969 37.4884 22.9432 34.4838 22.9432H14.426C10.8383 22.9432 7.97465 20.2529 7.97465 16.9926C7.97465 14.0448 10.3293 11.5208 13.5037 11.1023L14.5553 10.9637L15.0274 10.0189C16.4911 7.08969 19.9659 5.09163 23.927 5.09163C28.6058 5.09163 32.5242 7.86972 33.3745 11.5322L33.6942 12.9092L35.1071 13.0583Z" fill="white"/>
</svg>
