<svg
  width="20"
  height="20"
  viewBox="0 0 20 20"
  fill="none"
  xmlns="http://www.w3.org/2000/svg"
>
  <path
    fill-rule="evenodd"
    clip-rule="evenodd"
    d="M0 10C0 4.47715 4.47715 0 10 0C15.5228 0 20 4.47715 20 10C20 15.5228 15.5228 20 10 20C4.47715 20 0 15.5228 0 10ZM7.0669 8.28244H4.80068V15.0915H7.0669V8.28244ZM7.21618 6.17612C7.20147 5.5085 6.72405 5 5.94879 5C5.17353 5 4.6667 5.5085 4.6667 6.17612C4.6667 6.82992 5.15855 7.35306 5.91937 7.35306H5.93386C6.72405 7.35306 7.21618 6.82992 7.21618 6.17612ZM15.2398 11.1874C15.2398 9.09594 14.1218 8.12255 12.6305 8.12255C11.4273 8.12255 10.8886 8.78344 10.5878 9.24706V8.28262H8.32131C8.35118 8.92154 8.32131 15.0917 8.32131 15.0917H10.5878V11.2889C10.5878 11.0854 10.6025 10.8824 10.6624 10.7367C10.8262 10.3302 11.1991 9.90926 11.8252 9.90926C12.6456 9.90926 12.9735 10.5336 12.9735 11.4486V15.0915H15.2397L15.2398 11.1874Z"
    fill="#8B7DF8"
  />
</svg>